<svg>
  <symbol fill="none" xmlns="http://www.w3.org/2000/svg" viewBox="0 0 34 38" id="logo-mobile">
    <g>
      <path d="M6.07 20.72v-2.26c6.68-.92 13.42-1.36 20.17-1.33 0 .6 0 1.21-.06 1.82a25.52 25.52 0 016-1.82A16.67 16.67 0 00.19 20.39l5.88.33zm21.17 3.51c-1.16 1.28-1.39 1.2-1.39 3.45v9.18A16.64 16.64 0 0033.32 23a17.3 17.3 0 00-.32-3.1 33.1 33.1 0 00-5.76 4.33zM6.36 25.72s-3.79-1.44-5.19-1.83A8.54 8.54 0 000 23.61a16.65 16.65 0 008.68 14L6.36 25.72z" fill="#FDC305"></path>
      <path d="M26.29 17.12A89.8 89.8 0 0024.89.65S24.75-.64 24 .41c-.59 1.25-1 2.58-1.2 3.94a70.34 70.34 0 00-12.77.34C9.24 2 7.85.75 7.18 1c-.67.25-.72 3.31-.72 3.31l-.33 14.1c6.68-.9 13.42-1.34 20.16-1.29z" fill="#F06351"></path>
      <path d="M12.41 14c0-.09 1 .68 1.41.92.41.24.61.42.61.59 0 .17-.27.34-.63.34s-.91-.12-1-.27h1.23A8.34 8.34 0 0112.41 14zm7.48.11l-1.09 1.33c0 .06-.17.35.18.3.41-.06.82-.16 1.22-.29.11 0 .07-.19-.11-.17-.18.02-.69.05-1 .11l.84-1.26s.07-.13-.04-.02zm-3.14 6.09c.46-.2.85-.56 1.09-1 .28-.65 0-.91-.44-1-.6-.11-1.22.01-1.74.34-.39.36-.34.72-.05 1 .35.27.73.49 1.14.66z" fill="#000"></path>
      <path d="M16.35 21.45c-.11.23-.27.43-.46.6-.28.23-.63.36-1 .38a2.15 2.15 0 01-1.47-.43 2.3 2.3 0 01-.53-.44c-.1-.11-.22-.2-.36-.26 0 0 .75 4.1 2.57 4.75 1.82.65 2.14-.75 2.2-1.13a5.61 5.61 0 00-.82-3.23c-.02-.31-.03-.11-.13-.24z" fill="#F06351"></path>
      <path d="M14.71 22.59a3.44 3.44 0 01-2.36-1.47.14.14 0 01.03-.15.14.14 0 01.2 0c.5.7 1.26 1.16 2.11 1.3a2.1 2.1 0 001.63-1l.14-.19.1.21s.37.76 1 .8c.63.04 1.05-.41 1.61-1.28a.14.14 0 01.2 0 .15.15 0 01.05.2c-.64 1-1.27 1.44-1.88 1.4a1.55 1.55 0 01-1.12-.76 2.26 2.26 0 01-1.71.94z" fill="#000"></path>
      <path d="M26.24 18.92a58.63 58.63 0 00-5.07 5.19A31.63 31.63 0 0115.88 29c-.22-.53-1.62-1.51-1.62-1.51s-3.13-2.14-5.18-3.82a34.14 34.14 0 01-3.13-3l-2-.11c2.89 4.2 7.12 7.3 12 8.8.86-.14 3.27-1.86 5.07-3.26a58.13 58.13 0 005.94-5.89c.5-.59.89-1.27 1.14-2-1.1.39-1.86.71-1.86.71z" fill="#F06351"></path>
    </g>
    <defs>
      <path fill="#fff" d="M0 0h33.32v37.61H0z"></path>
    </defs>
  </symbol>
  <symbol fill="none" xmlns="http://www.w3.org/2000/svg" viewBox="0 0 61 51" id="logo-tablet">
    <path d="M51.582 19.854a22.231 22.231 0 00-6.936-9.09 21.96 21.96 0 00-10.503-4.396A21.887 21.887 0 0022.865 7.83a22.083 22.083 0 00-9.058 6.934 22.354 22.354 0 00-4.43 10.564 22.432 22.432 0 001.373 11.386 22.238 22.238 0 006.813 9.184 21.965 21.965 0 0010.442 4.54 99.88 99.88 0 01-1.456-5.951 27.756 27.756 0 004.1 2.215s.104 1.877.241 3.971c1.54.027 3.08-.11 4.592-.408a1.874 1.874 0 010-.66c.25-1.625.939-4.553 1.077-6.439a13.212 13.212 0 002.498-3.224l-.052.383c-.474 3.701-1.464 7.655-2.067 8.75a4.845 4.845 0 01-.715.999 22.006 22.006 0 008.563-4.141 22.237 22.237 0 006.047-7.386 22.45 22.45 0 00.749-18.694zm-1.266 3.293c-.38.374-1.163.626-1.293-.504-.129-1.13-.163-1.92-.163-1.92s-1.663-2.98-2.283-3.015c-.62-.035-5.022 3.015-6.185 4.344-1.008 1.121-1.206 1.043-1.206 3.015 0 1.486.19 7.1.086 11.392l-7.02 1.886a54.724 54.724 0 01-6.72 1.494l-.861-5.066h-.12L22.335 23.33s-3.282-1.252-4.488-1.59a3.213 3.213 0 00-3.445.547c-.472.417-.85.931-1.107 1.509a4.437 4.437 0 00-.384 1.836c.182.404.321.826.414 1.26.043.417-1.034.374-1.723.374-.69 0-.793-1.251-.25-2.72a19.929 19.929 0 011.568-3.25 10.312 10.312 0 011.783-2.51s.12-.296 1.077-.21c.956.088 6.271.374 6.271.374l.043-1.972a121.95 121.95 0 0117.436-1.165v1.59a19.265 19.265 0 017.011-1.737.778.778 0 01.664.339c.293.373 2.076 2.607 2.283 2.928a24.365 24.365 0 011.576 2.607 5.44 5.44 0 01-.75 1.599v.008z" fill="#FDC305"></path>
    <path d="M48.636 17.83c.405.52.758.981.862 1.12a24.464 24.464 0 011.576 2.607 5.444 5.444 0 01-.74 1.547c-.38.373-1.164.625-1.293-.504-.13-1.13-.18-1.877-.18-1.877s-1.663-2.98-2.283-3.015c-.62-.035-5.023 3.015-6.186 4.344-1.008 1.121-1.206 1.043-1.206 3.015 0 1.304.147 5.779.112 9.758 1.56.174 3.851.609 4.54 1.634 0 0-.25-6.239 6.728-2.972 0 0 .241-8.506 9.872-6.325a37.712 37.712 0 00-11.802-9.333zm-9.071-2.017A79.248 79.248 0 0038.36 1.45s-.129-1.13-.749-.208a12.47 12.47 0 00-1.034 3.475 60.535 60.535 0 00-11.043.296c-.707-2.39-1.913-3.476-2.49-3.189-.577.287-.646 2.85-.646 2.85l-.284 12.304a121.956 121.956 0 0117.452-1.165z" fill="#F06351"></path>
    <path d="M39.065 39.943c.112-.93.172-2.163.207-3.527l-7.02 1.885a54.73 54.73 0 01-6.72 1.538l.957 4.345c0 .095 0 .19.06.286a27.754 27.754 0 004.1 2.216 36.478 36.478 0 005.927-3.589v.053a13.208 13.208 0 002.49-3.207z" fill="#E55645"></path>
    <path d="M27.566 13.094c-.043-.087.861.59 1.214.8.353.208.526.364.526.512 0 .148-.224.295-.534.295-.31 0-.793-.104-.862-.226-.069-.121.517 0 .81 0h.25a6.99 6.99 0 01-1.404-1.381zm6.46.096s-.861 1.112-.939 1.164c-.077.052-.146.295.164.252a6.911 6.911 0 001.051-.244c.095-.052.06-.173-.103-.156-.164.017-.586.043-.862.096l.732-1.104s.026-.104-.043-.009zm-2.704 5.308a1.98 1.98 0 00.938-.868c.242-.574 0-.791-.379-.87a2.095 2.095 0 00-1.507.296c-.336.322-.293.634 0 .869.29.23.61.423.948.573z" fill="#000"></path>
    <path d="M31.011 19.593a1.78 1.78 0 01-.396.522 1.486 1.486 0 01-.861.33 1.866 1.866 0 01-1.327-.383 1.725 1.725 0 01-.456-.39.862.862 0 00-.31-.218s.645 3.572 2.213 4.145c1.568.573 1.86-.66 1.904-.99a4.925 4.925 0 00-.706-2.816c0-.26-.018-.087-.06-.2z" fill="#F06351"></path>
    <path d="M29.547 20.584a2.998 2.998 0 01-2.024-1.243.131.131 0 010-.173.122.122 0 01.086-.037.121.121 0 01.086.037 2.785 2.785 0 001.817 1.138 1.806 1.806 0 001.413-.87l.12-.164.087.191s.327.66.861.695c.534.035.913-.365 1.404-1.12a.123.123 0 01.172-.035.125.125 0 01.035.173c-.574.852-1.117 1.26-1.628 1.225a1.328 1.328 0 01-.965-.634 1.954 1.954 0 01-1.464.817z" fill="#000"></path>
    <path d="M31.235 32.28c1.784 0 3.23-1.46 3.23-3.259 0-1.8-1.446-3.258-3.23-3.258s-3.23 1.458-3.23 3.258 1.446 3.258 3.23 3.258z" fill="#FDC305"></path>
    <path d="M35.516 26.37l-2.696 1.14.99-4.893-6.46 8.48 2.697-1.138-.991 4.901 6.46-8.49zm-6.365 3.33l3.583-4.701-.698 3.476 1.723-.713-3.61 4.71.699-3.476-1.697.704zm-1.206-1.278a.969.969 0 00.965-.974.97.97 0 00-.965-.973.97.97 0 00-.965.973.97.97 0 00.965.974zm5.616 3.528c.376 0 .68-.308.68-.687a.684.684 0 00-.68-.687.684.684 0 00-.68.687c0 .379.304.686.68.686zm.827-1.886a.303.303 0 00.302-.304.303.303 0 00-.302-.305.303.303 0 00-.301.305c0 .168.135.304.301.304z" fill="#111"></path>
    <path d="M39.522 17.386a49.73 49.73 0 00-4.384 4.527 27.555 27.555 0 01-4.574 4.258c-.19-.46-1.405-1.32-1.405-1.32s-2.704-1.869-4.48-3.337a27.578 27.578 0 01-2.704-2.607l-1.723-.096a19.507 19.507 0 0010.337 7.681c.741-.121 2.826-1.624 4.385-2.85a49.885 49.885 0 005.169-5.135 5.566 5.566 0 00.982-1.738c-.982.33-1.603.617-1.603.617zM22.337 23.33s-3.282-1.252-4.488-1.59a3.214 3.214 0 00-3.446.547c-.472.417-.85.931-1.107 1.509a4.439 4.439 0 00-.383 1.836c.182.404.32.826.413 1.26.043.417-1.033.374-1.723.374-.689 0-.792-1.251-.25-2.72a20.01 20.01 0 011.568-3.25C8.227 23.764 0 29.464 0 29.464a39.136 39.136 0 017.055.209c4.523.46 4.307 4.058 4.307 4.058a33.033 33.033 0 014.85-.965c1.826-.121 1.956 1.842 1.956 1.842l.456 3.354a15.804 15.804 0 012.283-2.05 5.189 5.189 0 013.773-1.13L22.337 23.33z" fill="#F06351"></path>
  </symbol>
  <symbol fill="none" xmlns="http://www.w3.org/2000/svg" viewBox="0 0 71 59" id="logo-desktop">
    <path d="M59.883 23.806A25.432 25.432 0 0051.83 13.43a25.725 25.725 0 00-12.193-5.02 25.803 25.803 0 00-13.093 1.671 25.59 25.59 0 00-10.515 7.916 25.296 25.296 0 00-5.144 12.06 25.212 25.212 0 001.595 12.997 25.423 25.423 0 007.909 10.484 25.719 25.719 0 0012.122 5.184 113.04 113.04 0 01-1.69-6.794 32.41 32.41 0 004.76 2.529s.12 2.142.28 4.533c1.789.03 3.575-.126 5.33-.466a2.104 2.104 0 010-.754c.29-1.855 1.09-5.198 1.25-7.35a15.114 15.114 0 002.9-3.68l-.06.436c-.55 4.226-1.7 8.74-2.4 9.989a5.536 5.536 0 01-.83 1.14 25.73 25.73 0 009.941-4.727 25.48 25.48 0 007.021-8.43 25.252 25.252 0 00.87-21.341zm-1.47 3.76c-.44.426-1.35.714-1.5-.576a34.09 34.09 0 01-.19-2.192s-1.93-3.402-2.65-3.442c-.72-.04-5.831 3.442-7.181 4.96-1.17 1.28-1.4 1.19-1.4 3.442 0 1.696.22 8.104.1 13.004l-8.15 2.153c-2.562.729-5.168 1.299-7.801 1.706l-1-5.783h-.14l-2.57-13.064s-3.81-1.428-5.21-1.815a3.788 3.788 0 00-4 .625 5.032 5.032 0 00-1.285 1.722 4.995 4.995 0 00-.446 2.097c.212.46.373.943.48 1.438.05.476-1.2.426-2 .426s-.92-1.428-.29-3.104c.492-1.29 1.1-2.531 1.82-3.71a11.776 11.776 0 012.07-2.867s.14-.337 1.25-.238c1.11.1 7.28.427 7.28.427l.05-2.252a143.93 143.93 0 0120.242-1.33v1.816a22.671 22.671 0 018.14-1.984.916.916 0 01.77.387c.34.427 2.41 2.976 2.65 3.343a27.73 27.73 0 011.83 2.976 6.167 6.167 0 01-.87 1.825v.01z" fill="#FDC305"/><path d="M56.463 21.495c.47.595.88 1.121 1 1.28a27.74 27.74 0 011.83 2.976c-.19.63-.48 1.226-.86 1.765-.44.427-1.35.714-1.5-.575-.15-1.29-.21-2.143-.21-2.143s-1.93-3.402-2.65-3.442c-.72-.04-5.83 3.442-7.18 4.96-1.17 1.28-1.4 1.19-1.4 3.442 0 1.488.17 6.596.13 11.14 1.81.198 4.47.694 5.27 1.864 0 0-.29-7.122 7.81-3.392 0 0 .28-9.711 11.46-7.221a43.671 43.671 0 00-13.7-10.654zM45.932 19.194a89.015 89.015 0 00-1.4-16.397s-.15-1.29-.87-.238a14.057 14.057 0 00-1.2 3.968 71.461 71.461 0 00-12.82.337c-.82-2.728-2.22-3.968-2.89-3.64-.67.327-.75 3.253-.75 3.253l-.33 14.046a143.942 143.942 0 0120.26-1.33z" fill="#F06351"/><path d="M45.352 46.74c.13-1.062.2-2.47.24-4.028l-8.15 2.153a64.434 64.434 0 01-7.8 1.756l1.11 4.96c0 .108 0 .218.07.327a32.398 32.398 0 004.76 2.53 42.484 42.484 0 006.88-4.098v.06a15.115 15.115 0 002.89-3.66z" fill="#E55645"/><path d="M32.002 16.09c-.05-.1 1 .674 1.41.912.41.238.61.416.61.585 0 .169-.26.337-.62.337s-.92-.119-1-.258c-.08-.139.6 0 .94 0h.29a8.052 8.052 0 01-1.63-1.577zM39.502 16.198s-1 1.27-1.09 1.33c-.09.059-.17.337.19.287a8.146 8.146 0 001.22-.278c.11-.06.07-.198-.12-.178-.19.02-.68.05-1 .109l.85-1.26s.03-.119-.05-.01zM36.362 22.259a2.293 2.293 0 001.09-.992c.28-.655 0-.903-.44-.992-.606-.11-1.23.01-1.75.337-.39.367-.34.724 0 .992a5.17 5.17 0 001.1.655z" fill="#000"/><path d="M36.002 23.509c-.115.225-.271.427-.46.595-.285.227-.635.36-1 .377a2.193 2.193 0 01-1.54-.437 1.995 1.995 0 01-.53-.446 1.002 1.002 0 00-.36-.248s.75 4.077 2.57 4.731c1.82.655 2.16-.753 2.21-1.13a5.55 5.55 0 00-.82-3.214c0-.298-.02-.1-.07-.228z" fill="#F06351"/><path d="M34.301 24.64a3.518 3.518 0 01-2.35-1.419.148.148 0 010-.198.14.14 0 01.155-.031.14.14 0 01.045.03 3.209 3.209 0 002.11 1.3 2.121 2.121 0 001.64-.992l.14-.188.1.218s.38.754 1 .794c.62.04 1.06-.417 1.63-1.28a.144.144 0 01.2-.04.143.143 0 01.04.199c-.666.972-1.296 1.438-1.89 1.398a1.557 1.557 0 01-1.12-.724 2.254 2.254 0 01-1.7.933z" fill="#000"/><path d="M36.262 37.99c2.07 0 3.75-1.665 3.75-3.719s-1.68-3.72-3.75-3.72c-2.072 0-3.75 1.666-3.75 3.72 0 2.054 1.678 3.72 3.75 3.72z" fill="#FDC305"/><path d="M41.232 31.246l-3.13 1.3 1.15-5.585-7.5 9.68 3.13-1.298-1.15 5.594 7.5-9.691zm-7.39 3.799l4.16-5.366-.81 3.967 2-.813-4.19 5.376.81-3.968-1.97.804zM32.441 33.587c.62 0 1.12-.498 1.12-1.111 0-.614-.5-1.111-1.12-1.111-.618 0-1.12.497-1.12 1.11 0 .614.502 1.112 1.12 1.112zM38.962 37.614c.436 0 .79-.35.79-.784a.787.787 0 00-.79-.783c-.436 0-.79.35-.79.783 0 .433.354.784.79.784zM39.922 35.462c.193 0 .35-.156.35-.348a.349.349 0 00-.35-.347.349.349 0 00-.35.347c0 .192.157.348.35.348z" fill="#111"/><path d="M45.882 20.99a57.219 57.219 0 00-5.09 5.167 31.79 31.79 0 01-5.31 4.86c-.22-.525-1.63-1.507-1.63-1.507s-3.14-2.133-5.2-3.81a31.78 31.78 0 01-3.14-2.975l-2-.109a22.62 22.62 0 0012 8.769c.86-.14 3.28-1.855 5.09-3.254a57.44 57.44 0 006-5.862 6.314 6.314 0 001.14-1.984c-1.14.377-1.86.704-1.86.704z" fill="#F06351"/><path d="M65.223 3.472l-8.46 9.364-1.22-1.974L63.693 0l1.53 3.472zM62.653 17.12l5.54-4.076-.78-3.71-5.4 4.771.64 3.016zM59.923 48.972l6.13 3.154 3.01-2.321-6.69-2.728-2.45 1.895zM1.95 5.922l3.07-3.333 9.29 8.927-1.22 2.262L1.95 5.922zM7.38 16.149l-4.7-3.105-2.4 3.839 5.15 2.38 1.95-3.114zM13.91 52.126l-4.55 3.323L12.16 59l4.02-3.988-2.27-2.886z" fill="#FDC305"/><path d="M25.931 27.774s-3.81-1.428-5.21-1.815a3.788 3.788 0 00-4 .625 5.032 5.032 0 00-1.285 1.722 4.994 4.994 0 00-.445 2.097c.211.46.372.943.48 1.438.05.476-1.2.426-2 .426s-.92-1.428-.29-3.104c.491-1.29 1.1-2.531 1.82-3.71C9.55 28.27 0 34.777 0 34.777a46.196 46.196 0 018.19.238c5.25.526 5 4.632 5 4.632a38.924 38.924 0 015.63-1.1c2.121-.14 2.271 2.102 2.271 2.102l.53 3.83a18.248 18.248 0 012.65-2.342 6.095 6.095 0 014.38-1.29l-2.72-13.073z" fill="#F06351"/>
  </symbol>
  <symbol fill="none" xmlns="http://www.w3.org/2000/svg" viewBox="0 0 50 53" id="icon-cat-slim">
    <circle cx="25" cy="28" r="25" fill="#68B738"></circle>
    <g>
      <path d="M35.203 0h-.195c-.33.187-.593.474-.75.82a8.028 8.028 0 00-.664 1.757.84.84 0 01-.761.691 3.77 3.77 0 00-2.69 1.948c-.372.661-.69 1.35-.952 2.062-.73 1.897-1.29 3.856-1.98 5.768-.324.872-.339.872-1.316.872-1.168 0-1.085-.18-1.1 1.108 0 .407.123.613.555.593.133 0 .334-.067.385.108.052.175-.123.252-.226.355a4.626 4.626 0 01-2.227 1.258c-.977.263-1.975.47-2.926.789-2.443.82-4.7 1.964-6.46 3.902a14.436 14.436 0 00-2.437 4.041c-1.888 4.454-2.803 9.145-3.513 13.882a97.062 97.062 0 00-.75 6.7C7.102 47.759 7 48.877 7 50h17.141a1.126 1.126 0 00-.118-.66 2.577 2.577 0 00-1.97-1.582c-.36-.083-.401-.191-.18-.475.36-.482.637-1.022.818-1.597.838-2.48 1.162-5.067 1.568-7.63.23-1.956.83-3.85 1.77-5.582a11.126 11.126 0 012.874-3.283c.427-.325.443-.325.515.227.051.366.061.742.087 1.113a48.166 48.166 0 01-.092 7.31 31.866 31.866 0 00-.078 5.67A38.826 38.826 0 0030.503 50h6.84a2.79 2.79 0 00-2.18-2.289 4.62 4.62 0 00-1.934.103c-.309.073-.438 0-.463-.335a29.113 29.113 0 01.514-8.154 91.803 91.803 0 001.574-9.371 9.163 9.163 0 011.172-3.609c.612-1.092 1.147-2.226 1.749-3.324a3.031 3.031 0 00.216-2.676c-.139-.366-.273-.737-.442-1.087-.515-1.005-1.029-2-1.502-3.016-.252-.515-.196-.577.365-.593.838 0 .838 0 .854-.845v-.34c0-.356-.134-.552-.515-.516h-.781c-.355 0-.458-.149-.37-.515a3.217 3.217 0 012.638-2.284 11.291 11.291 0 013.404.222.513.513 0 00.643-.33c.206-.515.432-1.03.664-1.546a.517.517 0 00-.052-.588c-1.646-2.093-3.43-4.046-5.863-5.299a.767.767 0 01-.452-.577 10.123 10.123 0 00-.653-2.144A1.803 1.803 0 0035.203 0z" fill="#000"></path>
    </g>
    <defs>
      <path fill="#fff" transform="translate(7)" d="M0 0h36v50H0z"></path>
    </defs>
  </symbol>
  <symbol fill="none" xmlns="http://www.w3.org/2000/svg" viewBox="0 0 67 50" id="icon-cat-pro">
    <circle cx="34.5" cy="25" r="25" fill="#68B738"></circle>
    <g>
      <path d="M61.55 13.9a7.598 7.598 0 012.25-2.3c.5-.35.8-.35 1.1.3.4.95.75 1.95.45 3a1.145 1.145 0 00.2 1.05c.3.4.55.8.8 1.15a3.136 3.136 0 01.45 3.1 2.715 2.715 0 00-.1 1.55c.1.495.1 1.005 0 1.5a1.875 1.875 0 01-1.35 1.6c-.64.122-1.21.478-1.6 1a.525.525 0 01-.45.25c-.6.1-2.1-1.25-2.1-1.85v-.3c.05-1.8-.05-1.95-1.7-2.7a2.195 2.195 0 01-.9-.6c-.3-.4-.7-.35-1.15-.2-.45.15-.7.45-.65.95.15 1.21.2 2.431.15 3.65a.94.94 0 00.1.4c1.55 2.25 2.15 4.9 2.9 7.45.6 1.95 1.7 3 3.7 3.15.32.026.638.076.95.15a2.08 2.08 0 011.7 1.6c.35 1.05.15 1.3-.9 1.3h-3.25a1.62 1.62 0 01-1.15-.4 5.855 5.855 0 00-1.7-1 3.63 3.63 0 01-1.7-1.3 14.304 14.304 0 00-2-2.25c-1.4-1.45-2.9-2.85-4.2-4.35a5.69 5.69 0 01-1.6-3.8c0-.45-.1-.65-.6-.45a.965.965 0 01-.5.15c-1.4 0-2.1.85-2.6 2.1-.45 1.05-1.05 2.05-1.6 3.1A5.194 5.194 0 0044 33c0 1.2.3 1.6 1.4 2 .7.25 1.35.5 1.7 1.2.4.8.3 1-.55 1.05h-3.4a.94.94 0 01-.95-.55l-.9-1.5a3.024 3.024 0 01-.35-2.7 5.93 5.93 0 00.05-2.65 4.209 4.209 0 01.85-3.5c.3-.35.3-.5-.2-.6a25.028 25.028 0 01-5.9-2.05.05.05 0 01-.05-.05c-1.6-.6-1.9-.5-2.35 1.15-.4 1.4-.8 2.8-1.1 4.25-.35 1.6.05 3.1.55 4.6.2.6.8.55 1.25.7 1 .3 1.85.7 2.25 1.75.35.8.3.9-.55.9-.85 0-1.7-.05-2.6 0a3.32 3.32 0 01-2.1-.7c-2.4-1.6-3.1-4.05-3.3-6.7-.1-1.65-1-2.95-2.05-4.2-.2-.25-.4-.35-.7-.15a22.16 22.16 0 01-3.35 1.5 13.355 13.355 0 00-6.1 4.4 5.315 5.315 0 00-1.1 2.55c-.15.9.1 1.3 1 1.55s1.35.75 1.45 1.7c.05.4-.1.6-.5.6h-4.05a.826.826 0 01-.65-.4 4.28 4.28 0 01-.95-2.75 25.292 25.292 0 01.45-5.15 3.149 3.149 0 011.7-2.4c2.95-1.4 4.5-4.05 5.9-6.8.3-.55.05-.65-.45-.6a8.233 8.233 0 00-3.85 1.6 35.307 35.307 0 00-4.15 3.55 8.335 8.335 0 01-5.15 2.45c-3.65.2-5.35-1.85-5.2-5.15a4.845 4.845 0 011.2-3.05 2.125 2.125 0 012.25-.75c.75.2.95.6.65 1.35-.15.3-.35.55-.5.85a3.75 3.75 0 00-.5 1c-.55 1.5.2 2.55 1.75 2.7 1.65.15 3-.55 4.25-1.55a22.474 22.474 0 004-4.15 10.395 10.395 0 017.2-4.05c1.15-.15 2.15-.65 3.25-.95 2.057-.627 4.2-.93 6.35-.9a6.5 6.5 0 002.9-.55c2.45-1 5-1 7.55-.5 2 .4 4 .9 5.95 1.4a8.291 8.291 0 003.5-.1 33.885 33.885 0 016.7-1 9.079 9.079 0 014.3.85c1 .45 1 .45.75 1.4z" fill="#000"></path>
    </g>
    <defs>
      <path fill="#fff" transform="translate(0 11)" d="M0 0h67v28H0z"></path>
    </defs>
  </symbol>
  <symbol fill="none" xmlns="http://www.w3.org/2000/svg" viewBox="0 0 101 18" id="logo-text">
    <g fill="#111">
      <path d="M1.26 16.54A6.86 6.86 0 010 12.24v-6.4C-.1 4.3.3 2.77 1.19 1.47 2.05.46 3.39 0 5.37 0 7.35 0 8.61.46 9.4 1.3a5.42 5.42 0 011.19 3.78v1.54H6.72V4.85a3.7 3.7 0 00-.24-1.54 1.16 1.16 0 00-1.1-.62c-.56 0-.95.16-1.11.54a4.85 4.85 0 00-.24 1.7v8.22c-.04.56.07 1.12.32 1.62.15.38.55.54 1.1.54.56 0 .87-.16 1.03-.54.18-.52.26-1.07.24-1.62v-1.84h3.87v1.54a5.77 5.77 0 01-1.19 3.84c-.79.93-2.13 1.39-4.03 1.39-1.9-.08-3.32-.54-4.1-1.54zM15.25.23h4.5l3.33 17.54h-3.64l-.63-3.7h-2.6l-.64 3.7h-3.72L15.25.23zm3.24 11.54l-.95-6.85-.94 6.85h1.9zM25.84 3.15h-2.68V.23h9.4v2.85h-2.69v14.69h-4.03V3.15zM39.75.23h6.96v1.85h-4.5v5.77h3.63v1.77H42.2v6.46h4.5v1.77h-7.03V.23h.08zM48.76.23h1.74l5.14 11.62V.23h2.05v17.54h-1.58l-5.21-12v12h-2.14V.23zM60.06.23h6.96v1.85h-4.5v5.77h3.63v1.77H62.5v6.46h4.5v1.77h-6.95V.23zM69.07.23h3.64c1.43-.1 2.85.28 4.03 1.08C77.6 2 78 3.23 78 4.85c0 2.23-.7 3.61-2.21 4.07l2.53 8.77h-2.45L73.5 9.46h-1.98v8.23H69V.23h.08zm3.48 7.54c.81.06 1.63-.15 2.3-.62.47-.38.7-1.15.7-2.3a4.85 4.85 0 00-.23-1.7c-.18-.39-.49-.71-.87-.92a3.69 3.69 0 00-1.74-.3h-1.1v5.76h.94v.08zM81.16 16.46a7.61 7.61 0 01-1.1-4.46V6.15c-.02-1.11.11-2.22.4-3.3.26-.81.78-1.51 1.5-2 .88-.51 1.9-.75 2.92-.7 1.66 0 2.84.39 3.55 1.23a5.77 5.77 0 011.11 3.85v.62h-2.37V5.3c0-.65-.05-1.29-.16-1.93-.06-.4-.3-.76-.63-1a2.5 2.5 0 00-1.5-.38 2.42 2.42 0 00-1.58.46 1.75 1.75 0 00-.63 1.23c-.1.69-.16 1.38-.16 2.08v6.54c-.06 1 .1 2 .47 2.92.32.62.95.85 1.9.85a1.96 1.96 0 001.9-.93c.41-.97.6-2.02.55-3.07v-1.23h-2.3V9.08h4.59v8.69h-1.58l-.24-2c-.2.67-.64 1.25-1.22 1.66-.6.4-1.3.6-2.02.57a4.05 4.05 0 01-3.4-1.54zM94.68 11.62L90.8.3h2.37l2.76 8.46L98.63.3H101l-3.87 11.3v6.16h-2.37v-6.15h-.08z"/>
    </g>
    <defs>
      <clipPath>
        <path fill="#fff" d="M0 0h101v18H0z"/>
      </clipPath>
    </defs>
  </symbol>
  <symbol fill="none" xmlns="http://www.w3.org/2000/svg" viewBox="0 0 128 24" id="logo-text-footer">
    <g fill="#111">
      <path d="M1.6 22.05A9.5 9.5 0 010 16.31V7.79a9.63 9.63 0 011.5-5.84C2.6.62 4.3 0 6.81 0c2.5 0 4.1.62 5.1 1.74a7.49 7.49 0 011.51 5.03v2.05h-4.9V6.46c.03-.7-.07-1.4-.3-2.05a1.46 1.46 0 00-.59-.63 1.41 1.41 0 00-.82-.19c-.7 0-1.2.2-1.4.72-.23.73-.33 1.49-.3 2.25v10.98c-.05.74.08 1.48.4 2.15.2.52.7.72 1.4.72s1.1-.2 1.3-.72c.23-.7.33-1.42.3-2.15v-2.46h4.91v2.05a7.98 7.98 0 01-1.5 5.13c-1 1.23-2.7 1.84-5.1 1.84-2.41-.1-4.22-.72-5.22-2.05zM19.33.3h5.7l4.22 23.4h-4.61l-.8-4.93h-3.3l-.8 4.92h-4.72L19.33.31zm4.1 15.4l-1.2-9.14-1.2 9.13h2.4zm9.32-11.5h-3.4V.3h11.91v3.8h-3.4v19.6h-5.1V4.2zM50.38.3h8.81v2.47h-5.7v7.7h4.6v2.35h-4.6v8.62h5.7v2.35h-8.91V.31h.1zM61.8.3H64l6.51 15.5V.3h2.6v23.4h-2l-6.6-16v16H61.8V.3zm14.32 0h8.81v2.47h-5.7v7.7h4.6v2.35h-4.6v8.62h5.7v2.35h-8.81V.31zm11.42 0h4.6a7.87 7.87 0 015.11 1.44c1.1.93 1.6 2.57 1.6 4.72 0 2.98-.9 4.82-2.8 5.44l3.2 11.69h-3.1l-3-10.97h-2.5v10.97h-3.21V.31h.1zm4.4 10.06a4.3 4.3 0 002.9-.82c.6-.51.91-1.54.91-3.08a6.77 6.77 0 00-.3-2.25 2.58 2.58 0 00-1.1-1.24 4.47 4.47 0 00-2.2-.4h-1.4v7.69h1.2v.1zm10.92 11.59a10.57 10.57 0 01-1.4-5.95V8.2c-.03-1.48.14-2.96.5-4.4a5.2 5.2 0 011.9-2.67c1.12-.68 2.41-1 3.7-.92 2.11 0 3.61.5 4.52 1.64a7.98 7.98 0 011.4 5.12v.82h-3v-.71c0-.86-.07-1.72-.2-2.57a2.06 2.06 0 00-.8-1.33 3.04 3.04 0 00-1.91-.51 2.96 2.96 0 00-2 .61 2.3 2.3 0 00-.8 1.64c-.14.92-.2 1.85-.2 2.77v8.72a9.53 9.53 0 00.6 3.9c.4.82 1.2 1.13 2.4 1.13a2.37 2.37 0 002.4-1.23c.53-1.3.77-2.7.7-4.1v-1.65h-2.9V12.1h5.8v11.6h-2l-.3-2.67c-.26.89-.8 1.67-1.55 2.2-.74.55-1.64.81-2.55.77a4.9 4.9 0 01-4.3-2.05zm17.13-6.46L115.08.4h3l3.51 11.28L124.99.4H128l-4.9 15.08v8.2h-3.01v-8.2h-.1z"></path>
    </g>
    <defs>
      <clipPath>
        <path fill="#fff" d="M0 0h128v24H0z"></path>
      </clipPath>
    </defs>
  </symbol>
  <symbol xmlns="http://www.w3.org/2000/svg" viewBox="0 0 27 34" id="logo-html">
    <path d="M13.64.02L13.5 0 0 1.4v24.61L13.5 34 27 26.01V1.41L13.64 0zm11.6 25L13.5 31.96 1.77 25.02v-10.1l11.68 6.93.02 1.25-8.02-4.75v1.23l8.04 4.8.02 1.3-8.05-4.76v1.22l8.04 4.81 8.12-4.83V16.9l3.62-2.15v10.26zm0-11.57L22 15.33l-1.48.88-7.06-4.19-.01 1.23 6.04 3.57-.06.03-.13.07-.86.5-4.98-2.95-.01 1.22 3.93 2.33-.93.61-.02.01-2.97-1.74-.01 1.23 1.94 1.13-1.98 1.19L1.8 13.58l11.63-6.96 11.8 6.83zm0-1.22L13.43 5.3 1.77 12.22V2.99L13.5 1.76 25.23 3v9.24z">
    </path>
  </symbol>
  <symbol xmlns="http://www.w3.org/2000/svg" viewBox="0 0 23 16" id="icon_vkontakte">
    <path d="M.07 4c0-.63.42-.96 1.27-1.01L4.6 3c.22 0 .37.09.44.27.33.91.7 1.7 1.13 2.37.41.66.95 1.43 1.63 2.3a.3.3 0 00.28.16c.1 0 .18-.04.24-.13l.07-.2.02-3.17c0-.21-.06-.36-.19-.43A1.9 1.9 0 007.53 4c-.26-.04-.4-.17-.4-.4 0-.05.02-.09.03-.11.3-.8 1.18-1.19 2.63-1.19L11 2.29c.56 0 1.02.12 1.38.35.37.23.55.6.55 1.1v4.15c.1.06.2.09.28.09.22 0 .41-.11.57-.33 1.6-1.88 2.48-3.13 2.6-3.77a1.29 1.29 0 01.55-.57c.24-.13.44-.22.62-.27a.5.5 0 01.2-.03h3.39l.21.01c.3 0 .52.12.68.35.06.07.1.15.12.24a1.57 1.57 0 01.06.4v.13c-.1.5-.36 1.03-.78 1.6-.41.57-.94 1.18-1.59 1.84-.64.66-1.04 1.09-1.2 1.3-.13.14-.2.28-.2.4 0 .1.06.2.18.33l3.2 3.36c.17.2.26.41.26.64 0 .28-.13.52-.4.7-.26.18-.57.28-.94.3l-.37.03h-3.33a.8.8 0 00-.08 0 .8.8 0 01-.1.02c-.31 0-.61-.12-.89-.35a182 182 0 01-2.06-2.16 1.1 1.1 0 00-.3-.24 25.63 25.63 0 00-.44 1.63l-.07.31c-.14.43-.45.68-.92.77l-.3.02H9.74a5.92 5.92 0 01-3.62-1.4 14.5 14.5 0 01-3.25-3.59A32.9 32.9 0 01.18 4.52 1.24 1.24 0 01.07 4zm13.15 4.73c-.3 0-.58-.07-.83-.21-.25-.14-.37-.33-.37-.58v-4.2c0-.25-.07-.42-.22-.52-.15-.1-.4-.16-.77-.16L9.8 3.1c-.63 0-1.1.09-1.43.27.65.26.97.67.97 1.24v3.22c-.03.3-.18.56-.44.76-.26.2-.55.3-.88.3-.43 0-.77-.17-1-.53a18.47 18.47 0 01-2.54-4.1l-.2-.47-2.9-.02c-.2 0-.3.01-.33.03-.02.02-.03.07-.03.16 0 .1.02.22.04.34l.46 1.03a23.46 23.46 0 004 6.25c1.44 1.53 2.85 2.29 4.23 2.29h2.2c.08 0 .15-.02.19-.07a.52.52 0 00.1-.24l.05-.18.42-1.61c.11-.22.22-.37.3-.44.16-.14.35-.2.57-.2.35 0 .71.17 1.08.53l1.86 1.97c.11.16.24.24.37.24h3.6c.45 0 .67-.1.67-.28a.31.31 0 00-.07-.18l-3.17-3.3a1.17 1.17 0 01-.38-.83c0-.3.12-.57.35-.84.2-.25.56-.65 1.11-1.22a28.2 28.2 0 001.43-1.59c.41-.5.68-.94.81-1.34l.07-.24a.24.24 0 01-.02-.12l-.02-.14h-3.44c-.22.07-.4.18-.53.33l-.13.35c-.36.84-1.32 2.14-2.86 3.9-.31.24-.67.36-1.08.36z">
    </path>
  </symbol>
  <symbol xmlns="http://www.w3.org/2000/svg" viewBox="0 0 16 16" id="icon_instagram">
    <path d="M7.98.06c1.34 0 2.43.02 3.27.05a6 6 0 011.92.37 3.99 3.99 0 012.31 2.32 6 6 0 01.38 1.92 91.88 91.88 0 010 6.53 6 6 0 01-.38 1.92 3.99 3.99 0 01-2.3 2.31 6 6 0 01-1.93.38 91.88 91.88 0 01-6.53 0 6 6 0 01-1.92-.38 3.99 3.99 0 01-2.32-2.3 6 6 0 01-.37-1.93 91.73 91.73 0 010-6.53A6 6 0 01.48 2.8 3.99 3.99 0 012.8.48 6 6 0 014.72.11C5.56.08 6.65.06 7.98.06zm0 1.03c-1.38 0-2.51.02-3.39.05-.56.02-1.08.12-1.56.3-.75.31-1.28.84-1.6 1.6-.17.47-.27 1-.29 1.55a98.83 98.83 0 000 6.79c.02.56.12 1.08.3 1.56.31.75.84 1.28 1.6 1.6.47.17 1 .27 1.55.29a98.66 98.66 0 006.79 0 5.01 5.01 0 001.56-.3 2.85 2.85 0 001.6-1.6c.17-.47.27-1 .29-1.55a98.66 98.66 0 000-6.79 5.01 5.01 0 00-.3-1.56 2.85 2.85 0 00-1.6-1.6c-.47-.17-1-.27-1.55-.29-.88-.03-2.01-.05-3.4-.05zm0 10.07c.88 0 1.63-.31 2.25-.93.62-.62.93-1.37.93-2.25 0-.87-.31-1.62-.93-2.24a3.06 3.06 0 00-2.25-.93c-.87 0-1.62.31-2.24.93a3.06 3.06 0 00-.93 2.24c0 .88.31 1.63.93 2.25.62.62 1.37.93 2.24.93zm0-7.24c1.13 0 2.09.4 2.88 1.19.8.8 1.19 1.75 1.19 2.87 0 1.13-.4 2.09-1.2 2.88-.78.8-1.74 1.19-2.87 1.19-1.12 0-2.08-.4-2.87-1.2a3.92 3.92 0 01-1.19-2.87c0-1.12.4-2.08 1.19-2.87.8-.8 1.75-1.19 2.87-1.19zm5.2-.15a.95.95 0 01-.97.94.9.9 0 01-.67-.28.9.9 0 01-.27-.66.95.95 0 01.93-.97c.26 0 .49.1.68.29.2.19.3.42.3.68z"></path>
  </symbol>
  <symbol xmlns="http://www.w3.org/2000/svg" viewBox="0 0 22 22" id="icon_facebook">
    <path d="M16.5 1.83h-2.75c-1.22 0-2.38.48-3.24 1.32a4.45 4.45 0 00-1.34 3.18v2.7H6.42v3.59h2.75v7.19h3.66v-7.2h2.75l.92-3.59h-3.67v-2.7a.904.904 0 01.92-.89h2.75v-3.6z" stroke-width="1.1" stroke-linecap="round" stroke-linejoin="round"></path>
  </symbol>
</svg>
